<?xml version="1.0" encoding="iso-8859-1"?>
<!-- Generator: Adobe Illustrator 19.0.0, SVG Export Plug-In . SVG Version: 6.00 Build 0)  -->
<svg version="1.1" id="Capa_1" xmlns="http://www.w3.org/2000/svg" xmlns:xlink="http://www.w3.org/1999/xlink" x="0px" y="0px"
	 viewBox="0 0 512 512" style="enable-background:new 0 0 512 512;" xml:space="preserve">
<path style="fill:#F3DB53;" d="M385.349,490.999c-83.349,0-114.757-71.211-119.674-94.543c-0.587-2.784-3.8-4.148-6.204-2.627
	c-20.396,12.901-42.775,19.628-65.833,19.63c-0.002,0-0.01,0-0.013,0c-44.736,0.002-88.807-25.679-120.92-70.461
	c-20.347-28.272-60.987-72.701-71.61-84.204c-1.459-1.58-1.46-4.007,0-5.587c10.624-11.505,51.269-55.944,71.65-84.264
	c32.071-44.723,76.148-70.404,120.889-70.404c22.944,0,45.219,6.661,65.553,19.456c2.501,1.574,5.796,0.046,6.242-2.875
	c3.631-23.763,28.981-94.121,119.929-94.121c15.321,0,30.781,3.178,45.951,9.444c46.105,19.116,65.565,51.399,73.78,75.118
	c12.538,36.201,7.822,80.009-12.617,117.186c-6.345,11.595-14.374,21.687-23.903,30.181c-1.861,1.658-1.859,4.541,0.003,6.198
	c9.547,8.496,17.591,18.593,23.938,30.191c20.401,37.114,25.118,80.923,12.578,117.123c-8.215,23.719-27.677,56.001-73.731,75.095
	c-15.215,6.285-30.674,9.463-45.997,9.465C385.357,490.999,385.353,490.999,385.349,490.999z"/>
<path style="fill:#F8B31F;" d="M492.51,289.317c-6.347-11.598-14.391-21.695-23.938-30.191c-1.862-1.657-1.863-4.539-0.003-6.198
	c9.529-8.494,17.557-18.586,23.903-30.181c20.439-37.177,25.155-80.986,12.617-117.186c-8.215-23.719-27.676-56.002-73.78-75.118
	c-15.17-6.266-30.63-9.444-45.951-9.444c-4.933,0-9.669,0.21-14.222,0.606c11.49,1.194,22.998,4.152,34.344,8.838
	c46.104,19.116,65.565,51.399,73.78,75.118c12.539,36.201,7.822,80.009-12.617,117.186c-6.346,11.595-14.374,21.687-23.903,30.181
	c-1.861,1.658-1.859,4.541,0.003,6.198c9.547,8.496,17.591,18.593,23.938,30.191c20.401,37.114,25.118,80.923,12.578,117.123
	c-8.216,23.719-27.677,56.001-73.731,75.095c-11.194,4.624-22.52,7.559-33.826,8.792c4.388,0.434,8.93,0.672,13.647,0.672
	c0.004,0,0.008,0,0.012,0c15.323-0.002,30.782-3.18,45.997-9.465c46.054-19.094,65.515-51.376,73.731-75.095
	C517.628,370.239,512.912,326.43,492.51,289.317z"/>
<path style="fill:#D642BF;" d="M300.429,253.737c1.397,1.232,1.396,3.41-0.003,4.64c-10.317,9.069-50.072,41.649-88.761,41.649
	c-39.671,0-51.416-27.962-51.416-43.967s11.745-44.087,51.416-44.087C250.358,211.972,290.117,244.647,300.429,253.737z"/>
<path style="fill:#B3379F;" d="M211.665,211.972c-4.443,0-8.518,0.369-12.283,1.017c40.77,6.587,79.158,43.07,79.158,43.07
	s-38.391,36.387-79.163,42.953c3.767,0.646,7.842,1.014,12.288,1.014c38.689,0,78.443-32.579,88.761-41.649
	c1.399-1.23,1.401-3.408,0.003-4.64C290.116,244.647,250.358,211.972,211.665,211.972z"/>
<path style="fill:#44225E;" d="M456.803,309.331c23.582,42.9,23.71,107.183-40.919,133.978
	c-57.296,23.67-96.497-24.594-110.219-45.629c-1.089-1.669,0.909-3.611,2.521-2.455c12.974,9.299,40.688,23.553,76.084,9.437
	c40.154-16.103,29.829-69.179,9.05-83.736c-45.381-31.819-114.854,2.835-139.966,25.894
	c-48.823,44.96-108.353,26.666-147.615-28.084c-29.279-40.684-60.341-56.378-71.72-61.065c-1.484-0.611-1.484-2.731,0-3.342
	c11.379-4.688,42.441-20.383,71.72-61.068c39.262-54.75,98.792-73.042,147.615-28.083c25.112,23.06,94.586,57.713,139.966,25.894
	c20.778-14.557,31.104-67.633-9.05-83.736c-35.395-14.114-63.109,0.138-76.084,9.437c-1.612,1.155-3.61-0.787-2.521-2.455
	c13.722-21.035,52.923-69.297,110.218-45.629c64.629,26.795,64.502,91.08,40.919,133.976
	c-15.934,29.114-47.803,41.612-85.408,41.096c-58.001-0.514-95.988-37.359-134.231-56.683s-65.267,10.436-82.858,32.206
	c-17.462,21.642-33.396,36.715-33.396,36.715s15.934,15.071,33.398,36.715c17.591,21.771,44.616,51.53,82.858,32.206
	s76.23-56.167,134.231-56.683C409.001,267.85,440.869,280.217,456.803,309.331z"/>
<g>
	<path style="fill:#331947;" d="M200.041,329.338c-19.405-5.547-34.495-22.715-45.734-36.624
		c-17.464-21.643-33.398-36.715-33.398-36.715s15.934-15.073,33.398-36.716c11.239-13.909,26.329-31.077,45.734-36.624
		c-32.333-8.941-55.757,17.062-71.563,36.624c-17.464,21.643-33.398,36.716-33.398,36.716s15.934,15.071,33.398,36.715
		C144.284,312.276,167.708,338.279,200.041,329.338z"/>
	<path style="fill:#331947;" d="M390.054,68.688c64.63,26.795,64.502,91.08,40.92,133.977
		c-13.768,25.155-39.435,37.896-70.416,40.566c3.536,0.313,7.145,0.497,10.838,0.53c37.605,0.516,69.474-11.982,85.408-41.096
		c23.582-42.897,23.71-107.181-40.92-133.977c-15.9-6.568-30.404-7.591-43.359-5.199C378.162,64.501,384.006,66.19,390.054,68.688z"
		/>
	<path style="fill:#331947;" d="M371.396,268.237c-3.761,0.033-7.435,0.226-11.034,0.551c31.069,2.69,56.815,15.335,70.612,40.544
		c23.582,42.899,23.71,107.183-40.92,133.978c-6.049,2.499-11.894,4.188-17.53,5.2c12.955,2.392,27.46,1.369,43.36-5.2
		c64.63-26.795,64.502-91.078,40.92-133.978C440.869,280.217,409.001,267.85,371.396,268.237z"/>
</g>
<g>
</g>
<g>
</g>
<g>
</g>
<g>
</g>
<g>
</g>
<g>
</g>
<g>
</g>
<g>
</g>
<g>
</g>
<g>
</g>
<g>
</g>
<g>
</g>
<g>
</g>
<g>
</g>
<g>
</g>
</svg>
